<svg width="64" height="64" viewBox="0 0 64 64" fill="none" xmlns="http://www.w3.org/2000/svg">
  <rect width="64" height="64" rx="18" fill="url(#paint0_linear_1_2)"/>
  <path d="M18 42C18 39.7909 19.7909 38 22 38H42C44.2091 38 46 39.7909 46 42V45C46 46.6569 44.6569 48 43 48H21C19.3431 48 18 46.6569 18 45V42Z" fill="white"/>
  <path d="M21 38L24.5 25H39.5L43 38H21Z" fill="#FFE4F0"/>
  <path d="M26 25C26 21.6863 28.6863 19 32 19C35.3137 19 38 21.6863 38 25" stroke="white" stroke-width="3" stroke-linecap="round"/>
  <circle cx="24" cy="21" r="2" fill="white"/>
  <circle cx="32" cy="17" r="2" fill="white"/>
  <circle cx="40" cy="21" r="2" fill="white"/>
  <defs>
    <linearGradient id="paint0_linear_1_2" x1="8" y1="6" x2="58" y2="58" gradientUnits="userSpaceOnUse">
      <stop stop-color="#FF5EA8"/>
      <stop offset="1" stop-color="#A03CFF"/>
    </linearGradient>
  </defs>
</svg>
